<svg width="40" height="40" viewBox="0 0 40 40" fill="none" xmlns="http://www.w3.org/2000/svg">
  <g filter="url(#filter0_d)">
    <path d="M20 4C12.268 4 6 10.268 6 18C6 25.732 20 36 20 36C20 36 34 25.732 34 18C34 10.268 27.732 4 20 4Z" fill="#3B82F6"/>
    <path d="M20 4C12.268 4 6 10.268 6 18C6 25.732 20 36 20 36C20 36 34 25.732 34 18C34 10.268 27.732 4 20 4Z" fill="url(#paint0_linear)"/>
  </g>

  <!-- Star shape for the attraction marker -->
  <path d="M20 10L22.047 16.1876H28.5L23.227 20.1246L25.273 26.3123L20 22.3754L14.727 26.3123L16.773 20.1246L11.5 16.1876H17.953L20 10Z" fill="white"/>

  <defs>
    <filter id="filter0_d" x="0" y="0" width="40" height="40" filterUnits="userSpaceOnUse" color-interpolation-filters="sRGB">
      <feFlood flood-opacity="0" result="BackgroundImageFix"/>
      <feColorMatrix in="SourceAlpha" type="matrix" values="0 0 0 0 0 0 0 0 0 0 0 0 0 0 0 0 0 0 127 0"/>
      <feOffset dy="2"/>
      <feGaussianBlur stdDeviation="3"/>
      <feColorMatrix type="matrix" values="0 0 0 0 0 0 0 0 0 0 0 0 0 0 0 0 0 0 0.25 0"/>
      <feBlend mode="normal" in2="BackgroundImageFix" result="effect1_dropShadow"/>
      <feBlend mode="normal" in="SourceGraphic" in2="effect1_dropShadow" result="shape"/>
    </filter>
    <linearGradient id="paint0_linear" x1="14.0351" y1="7.72807" x2="25.9649" y2="32.2719" gradientUnits="userSpaceOnUse">
      <stop stop-color="#93C5FD"/>
      <stop offset="1" stop-color="#3B82F6"/>
    </linearGradient>
  </defs>
</svg>