<svg xmlns="http://www.w3.org/2000/svg" viewBox="0 0 100 100" fill="white">
  <!-- Base structure -->
  <rect x="30" y="70" width="40" height="30" />

  <!-- Main center tower -->
  <rect x="45" y="30" width="10" height="40" />
  <polygon points="45,30 55,30 50,15 45,30" />

  <!-- Side towers -->
  <rect x="25" y="45" width="7" height="25" />
  <polygon points="25,45 32,45 28.5,35 25,45" />

  <rect x="68" y="45" width="7" height="25" />
  <polygon points="68,45 75,45 71.5,35 68,45" />

  <!-- Left towers -->
  <rect x="15" y="55" width="5" height="15" />
  <polygon points="15,55 20,55 17.5,45 15,55" />

  <!-- Right towers -->
  <rect x="80" y="55" width="5" height="15" />
  <polygon points="80,55 85,55 82.5,45 80,55" />

  <!-- Detailing -->
  <rect x="35" y="60" width="30" height="10" />
  <rect x="40" y="45" width="20" height="15" />
</svg>