<svg width="400" height="300" viewBox="0 0 400 300" xmlns="http://www.w3.org/2000/svg">
  <defs>
    <linearGradient id="nightSky" x1="0%" y1="0%" x2="0%" y2="100%">
      <stop offset="0%" style="stop-color:#1e1b4b;stop-opacity:1" />
      <stop offset="100%" style="stop-color:#312e81;stop-opacity:1" />
    </linearGradient>
    <radialGradient id="firework1" cx="50%" cy="50%" r="50%">
      <stop offset="0%" style="stop-color:#fbbf24;stop-opacity:1" />
      <stop offset="50%" style="stop-color:#f59e0b;stop-opacity:0.8" />
      <stop offset="100%" style="stop-color:#d97706;stop-opacity:0.2" />
    </radialGradient>
    <radialGradient id="firework2" cx="50%" cy="50%" r="50%">
      <stop offset="0%" style="stop-color:#ec4899;stop-opacity:1" />
      <stop offset="50%" style="stop-color:#db2777;stop-opacity:0.8" />
      <stop offset="100%" style="stop-color:#be185d;stop-opacity:0.2" />
    </radialGradient>
    <radialGradient id="firework3" cx="50%" cy="50%" r="50%">
      <stop offset="0%" style="stop-color:#3b82f6;stop-opacity:1" />
      <stop offset="50%" style="stop-color:#2563eb;stop-opacity:0.8" />
      <stop offset="100%" style="stop-color:#1d4ed8;stop-opacity:0.2" />
    </radialGradient>
  </defs>

  <!-- Night sky background -->
  <rect width="400" height="300" fill="url(#nightSky)"/>

  <!-- Stars -->
  <g fill="#ffffff" opacity="0.8">
    <circle cx="50" cy="40" r="1"/>
    <circle cx="120" cy="30" r="1.5"/>
    <circle cx="180" cy="25" r="1"/>
    <circle cx="250" cy="35" r="1.2"/>
    <circle cx="320" cy="28" r="1"/>
    <circle cx="370" cy="45" r="1.3"/>
    <circle cx="80" cy="60" r="0.8"/>
    <circle cx="300" cy="55" r="1.1"/>
    <circle cx="150" cy="50" r="0.9"/>
    <circle cx="350" cy="70" r="1"/>
  </g>

  <!-- Firework burst 1 (Gold) -->
  <g transform="translate(120, 80)">
    <circle cx="0" cy="0" r="25" fill="url(#firework1)" opacity="0.7"/>
    <!-- Sparkle rays -->
    <g stroke="#fbbf24" stroke-width="2" opacity="0.9">
      <line x1="0" y1="-35" x2="0" y2="-20"/>
      <line x1="25" y1="-25" x2="18" y2="-14"/>
      <line x1="35" y1="0" x2="20" y2="0"/>
      <line x1="25" y1="25" x2="18" y2="14"/>
      <line x1="0" y1="35" x2="0" y2="20"/>
      <line x1="-25" y1="25" x2="-18" y2="14"/>
      <line x1="-35" y1="0" x2="-20" y2="0"/>
      <line x1="-25" y1="-25" x2="-18" y2="-14"/>
    </g>
  </g>

  <!-- Firework burst 2 (Pink) -->
  <g transform="translate(280, 60)">
    <circle cx="0" cy="0" r="20" fill="url(#firework2)" opacity="0.8"/>
    <!-- Sparkle rays -->
    <g stroke="#ec4899" stroke-width="2" opacity="0.9">
      <line x1="0" y1="-28" x2="0" y2="-16"/>
      <line x1="20" y1="-20" x2="14" y2="-11"/>
      <line x1="28" y1="0" x2="16" y2="0"/>
      <line x1="20" y1="20" x2="14" y2="11"/>
      <line x1="0" y1="28" x2="0" y2="16"/>
      <line x1="-20" y1="20" x2="-14" y2="11"/>
      <line x1="-28" y1="0" x2="-16" y2="0"/>
      <line x1="-20" y1="-20" x2="-14" y2="-11"/>
    </g>
  </g>

  <!-- Firework burst 3 (Blue) -->
  <g transform="translate(200, 100)">
    <circle cx="0" cy="0" r="18" fill="url(#firework3)" opacity="0.7"/>
    <!-- Sparkle rays -->
    <g stroke="#3b82f6" stroke-width="2" opacity="0.9">
      <line x1="0" y1="-25" x2="0" y2="-14"/>
      <line x1="18" y1="-18" x2="13" y2="-10"/>
      <line x1="25" y1="0" x2="14" y2="0"/>
      <line x1="18" y1="18" x2="13" y2="10"/>
      <line x1="0" y1="25" x2="0" y2="14"/>
      <line x1="-18" y1="18" x2="-13" y2="10"/>
      <line x1="-25" y1="0" x2="-14" y2="0"/>
      <line x1="-18" y1="-18" x2="-13" y2="-10"/>
    </g>
  </g>

  <!-- Castle silhouette -->
  <g fill="#1f2937" transform="translate(150, 180)">
    <!-- Main castle -->
    <rect x="0" y="0" width="100" height="60"/>
    <polygon points="-10,0 50,30 110,0"/>

    <!-- Towers -->
    <rect x="-20" y="10" width="20" height="50"/>
    <rect x="100" y="10" width="20" height="50"/>
    <polygon points="-25,10 -10,-5 5,10"/>
    <polygon points="95,10 110,-5 125,10"/>

    <!-- Central spire -->
    <rect x="45" y="-30" width="10" height="30"/>
    <polygon points="42,-30 50,-45 58,-30"/>
  </g>

  <!-- Floating sparkles -->
  <g fill="#fbbf24" opacity="0.6">
    <circle cx="80" cy="120" r="2"/>
    <circle cx="340" cy="90" r="1.5"/>
    <circle cx="60" cy="160" r="1"/>
    <circle cx="380" cy="140" r="2"/>
    <circle cx="30" cy="180" r="1.5"/>
    <circle cx="320" cy="180" r="1"/>
  </g>

  <!-- Magic trails -->
  <g fill="none" stroke="#fbbf24" stroke-width="1" opacity="0.4">
    <path d="M 70 110 Q 90 130 110 120 Q 130 110 150 125"/>
    <path d="M 250 70 Q 270 85 290 75 Q 310 65 330 80"/>
    <path d="M 40 170 Q 60 185 80 175 Q 100 165 120 180"/>
  </g>

  <!-- Event text -->
  <text x="200" y="250" text-anchor="middle" font-family="serif" font-size="20" font-weight="bold" fill="#ffffff">Disney Event</text>
  <text x="200" y="270" text-anchor="middle" font-family="sans-serif" font-size="12" fill="#d1d5db">Magical Celebrations</text>
</svg>