<svg width="400" height="300" viewBox="0 0 400 300" xmlns="http://www.w3.org/2000/svg">
  <defs>
    <linearGradient id="skyGradient" x1="0%" y1="0%" x2="0%" y2="100%">
      <stop offset="0%" style="stop-color:#7dd3fc;stop-opacity:1" />
      <stop offset="100%" style="stop-color:#0ea5e9;stop-opacity:1" />
    </linearGradient>
    <linearGradient id="groundGradient" x1="0%" y1="0%" x2="0%" y2="100%">
      <stop offset="0%" style="stop-color:#84cc16;stop-opacity:1" />
      <stop offset="100%" style="stop-color:#65a30d;stop-opacity:1" />
    </linearGradient>
    <radialGradient id="ferrisWheelGradient" cx="50%" cy="50%" r="50%">
      <stop offset="0%" style="stop-color:#ffffff;stop-opacity:1" />
      <stop offset="100%" style="stop-color:#e5e7eb;stop-opacity:1" />
    </radialGradient>
  </defs>

  <!-- Sky background -->
  <rect width="400" height="200" fill="url(#skyGradient)"/>

  <!-- Ground -->
  <rect y="200" width="400" height="100" fill="url(#groundGradient)"/>

  <!-- Ferris wheel -->
  <g transform="translate(320, 120)">
    <!-- Wheel structure -->
    <circle cx="0" cy="0" r="50" fill="none" stroke="#6b7280" stroke-width="3"/>
    <circle cx="0" cy="0" r="50" fill="url(#ferrisWheelGradient)" opacity="0.3"/>

    <!-- Spokes -->
    <line x1="-35" y1="-35" x2="35" y2="35" stroke="#6b7280" stroke-width="2"/>
    <line x1="35" y1="-35" x2="-35" y2="35" stroke="#6b7280" stroke-width="2"/>
    <line x1="0" y1="-50" x2="0" y2="50" stroke="#6b7280" stroke-width="2"/>
    <line x1="-50" y1="0" x2="50" y2="0" stroke="#6b7280" stroke-width="2"/>

    <!-- Gondolas -->
    <rect x="-5" y="-55" width="10" height="8" fill="#dc2626" rx="2"/>
    <rect x="45" y="-5" width="10" height="8" fill="#2563eb" rx="2"/>
    <rect x="-5" y="47" width="10" height="8" fill="#16a34a" rx="2"/>
    <rect x="-55" y="-5" width="10" height="8" fill="#ca8a04" rx="2"/>

    <!-- Center hub -->
    <circle cx="0" cy="0" r="8" fill="#374151"/>
  </g>

  <!-- Roller coaster track -->
  <g fill="none" stroke="#6b7280" stroke-width="4">
    <path d="M 50 180 Q 100 120 150 160 Q 200 200 250 140" stroke-linecap="round"/>
    <path d="M 52 182 Q 102 122 152 162 Q 202 202 252 142" stroke-linecap="round"/>
  </g>

  <!-- Roller coaster supports -->
  <g stroke="#9ca3af" stroke-width="2">
    <line x1="80" y1="160" x2="80" y2="200"/>
    <line x1="120" y1="140" x2="120" y2="200"/>
    <line x1="180" y1="180" x2="180" y2="200"/>
    <line x1="220" y1="170" x2="220" y2="200"/>
  </g>

  <!-- Castle in background -->
  <g fill="#a78bfa" opacity="0.7" transform="translate(80, 80)">
    <!-- Main tower -->
    <rect x="20" y="40" width="20" height="40"/>
    <polygon points="15,40 30,25 45,40"/>

    <!-- Side towers -->
    <rect x="5" y="50" width="12" height="30"/>
    <polygon points="3,50 11,40 19,50"/>

    <rect x="43" y="50" width="12" height="30"/>
    <polygon points="41,50 49,40 57,50"/>

    <!-- Flags -->
    <rect x="29" y="25" width="2" height="12"/>
    <polygon points="31,25 31,20 36,22 31,24" fill="#dc2626"/>
  </g>

  <!-- Trees -->
  <g>
    <!-- Tree 1 -->
    <rect x="25" y="170" width="4" height="25" fill="#92400e"/>
    <circle cx="27" cy="175" r="12" fill="#16a34a"/>

    <!-- Tree 2 -->
    <rect x="45" y="175" width="3" height="20" fill="#92400e"/>
    <circle cx="46.5" cy="180" r="10" fill="#16a34a"/>

    <!-- Tree 3 -->
    <rect x="350" y="165" width="5" height="30" fill="#92400e"/>
    <circle cx="352.5" cy="170" r="15" fill="#16a34a"/>
  </g>

  <!-- Magic sparkles -->
  <g fill="#fbbf24" opacity="0.8">
    <circle cx="60" cy="60" r="1.5"/>
    <circle cx="280" cy="50" r="2"/>
    <circle cx="150" cy="80" r="1"/>
    <circle cx="340" cy="80" r="1.5"/>

    <!-- Star sparkles -->
    <polygon points="200,40 201,43 204,43 201.5,45 202.5,48 200,46 197.5,48 198.5,45 196,43 199,43"/>
    <polygon points="120,200 121,203 124,203 121.5,205 122.5,208 120,206 117.5,208 118.5,205 116,203 119,203"/>
  </g>

  <!-- Text -->
  <text x="200" y="260" text-anchor="middle" font-family="serif" font-size="18" font-weight="bold" fill="#1f2937">Disney Park</text>
  <text x="200" y="280" text-anchor="middle" font-family="sans-serif" font-size="12" fill="#4b5563">The Most Magical Place on Earth</text>
</svg>